<?xml version="1.0" encoding="iso-8859-1"?>
<!-- Uploaded to: SVG Repo, www.svgrepo.com, Generator: SVG Repo Mixer Tools -->
<svg height="800px" width="800px" version="1.1" id="Layer_1" xmlns="http://www.w3.org/2000/svg" xmlns:xlink="http://www.w3.org/1999/xlink" 
	 viewBox="0 0 512 512" xml:space="preserve">
<g>
	<path style="fill:#76A944;" d="M512,141.241C512,63.232,448.768,0,370.759,0S229.517,63.232,229.517,141.241
		s63.232,141.241,141.241,141.241S512,219.251,512,141.241"/>
	<path style="fill:#2080E0;" d="M282.483,370.759c0-78.009-63.232-141.241-141.241-141.241S0,292.749,0,370.759
		S63.232,512,141.241,512S282.483,448.768,282.483,370.759"/>
	<path style="fill:#E1705C;" d="M282.483,512c-4.873,0-8.828-3.946-8.828-8.828c0-4.882,3.955-8.828,8.828-8.828
		c116.815,0,211.862-95.047,211.862-211.862c0-4.882,3.955-8.828,8.828-8.828c4.873,0,8.828,3.946,8.828,8.828
		C512,409.044,409.035,512,282.483,512"/>
	<path style="fill:#25B99A;" d="M8.828,238.345c-4.873,0-8.828-3.946-8.828-8.828C0,102.956,102.965,0,229.517,0
		c4.873,0,8.828,3.946,8.828,8.828s-3.955,8.828-8.828,8.828c-116.815,0-211.862,95.047-211.862,211.862
		C17.655,234.399,13.7,238.345,8.828,238.345"/>
	<g>
		<path style="fill:#FFFFFF;" d="M370.759,256c-4.873,0-8.828-3.946-8.828-8.828V35.31c0-4.882,3.955-8.828,8.828-8.828
			c4.873,0,8.828,3.946,8.828,8.828v211.862C379.586,252.054,375.631,256,370.759,256"/>
		<path style="fill:#FFFFFF;" d="M370.759,238.345c-21.804,0-40.413-7.645-51.041-20.983c-3.037-3.814-2.419-9.366,1.395-12.403
			c3.814-3.037,9.366-2.419,12.403,1.404c7.159,8.978,21.08,14.327,37.244,14.327c21.23,0,44.138-13.497,44.138-35.31
			c0-21.124-22.819-35.31-44.138-35.31c-29.722,0-61.793-20.25-61.793-52.966s32.071-52.966,61.793-52.966
			c22.131,0,40.254,7.45,51.041,20.983c3.037,3.814,2.419,9.366-1.395,12.403c-3.814,3.028-9.375,2.41-12.403-1.404
			c-7.371-9.242-20.595-14.327-37.244-14.327c-21.319,0-44.138,14.186-44.138,35.31c0,21.813,22.908,35.31,44.138,35.31
			c29.723,0,61.793,20.25,61.793,52.966S400.481,238.345,370.759,238.345"/>
		<path style="fill:#FFFFFF;" d="M414.897,105.931c-4.873,0-8.828-3.946-8.828-8.828V44.138c0-4.882,3.955-8.828,8.828-8.828
			c4.873,0,8.828,3.946,8.828,8.828v52.966C423.724,101.985,419.769,105.931,414.897,105.931"/>
		<path style="fill:#FFFFFF;" d="M326.621,247.172c-4.873,0-8.828-3.946-8.828-8.828v-52.966c0-4.882,3.955-8.828,8.828-8.828
			s8.828,3.946,8.828,8.828v52.966C335.448,243.226,331.494,247.172,326.621,247.172"/>
		<path style="fill:#FFFFFF;" d="M185.379,459.034H79.448c-4.873,0-8.828-3.946-8.828-8.828c0-4.882,3.955-8.828,8.828-8.828
			c24.523,0,26.359-24.099,26.492-26.854l-0.009-105.56c0-24.338,19.8-44.138,44.138-44.138s44.138,19.8,44.138,44.138
			c0,4.882-3.955,8.828-8.828,8.828c-4.873,0-8.828-3.946-8.828-8.828c0-14.601-11.882-26.483-26.483-26.483
			s-26.483,11.882-26.483,26.483v105.931c-0.265,7.345-2.648,17.673-8.669,26.483h70.462c12.376,0,17.655-5.279,17.655-17.655
			c0-4.882,3.955-8.828,8.828-8.828c4.873,0,8.828,3.946,8.828,8.828C220.69,445.837,207.492,459.034,185.379,459.034"/>
		<path style="fill:#FFFFFF;" d="M150.069,370.759H79.448c-4.873,0-8.828-3.946-8.828-8.828c0-4.882,3.955-8.828,8.828-8.828h70.621
			c4.873,0,8.828,3.946,8.828,8.828C158.897,366.813,154.942,370.759,150.069,370.759"/>
	</g>
</g>
</svg>